# xmcd CD database file
# Copyright (C) 1995 Ti Kan
#
# Track frame offsets:
#	150
#	32209
#	58296
#	80937
#	114828
#	135594
#	160372
#	167959
#	187600
#	204391
#	225837
#	253033
#	296882
#	332405
#
# Disc length: 4568 seconds
#
# Revision: 6
# Processed by: cddbd v1.5.2PL0 Copyright (c) Steve Scherf et al.
# Submitted via: NotifyCDPlayer(CDDB) 1.60beta7
#
DISCID=c211d60e
DTITLE=Meat Loaf - Bat Out Of Hell III - The Monster Is Loose
DYEAR=1900
DGENRE=
TTITLE0=The Monster Is Loose
TTITLE1=Blind As A Bat
TTITLE2=It's All Coming Back To Me Now [Ft. Marion Raven]
TTITLE3=Bad For Good
TTITLE4=Cry Over Me
TTITLE5=Land Of The Pig (The Butcher Is King)
TTITLE6=Monstro
TTITLE7=Alive
TTITLE8=If God Could Talk
TTITLE9=If It Ain't Broke
TTITLE10=What About Love
TTITLE11=Seize The Night
TTITLE12=The Future Just Aint What It Used To Be
TTITLE13=Cry To Heaven
EXTD=
EXTT0=
EXTT1=
EXTT2=
EXTT3=
EXTT4=
EXTT5=
EXTT6=
EXTT7=
EXTT8=
EXTT9=
EXTT10=
EXTT11=
EXTT12=
EXTT13=
PLAYORDER=
